<svg xmlns="http://www.w3.org/2000/svg" xmlns:xlink="http://www.w3.org/1999/xlink" version="1.1" x="0px" y="0px" viewBox="0 0 75.06037879881312 80.75160030897798" enable-background="new 0 0 100 100" xml:space="preserve" width="75.06037879881312" height="80.75160030897798" style="transform: rotate(0deg) scale(1, 1); opacity: 1; position: absolute; backface-visibility: hidden; left: 129.998px; top: 122.107px; width: 201.819px; height: 217.122px; overflow: visible;"><defs class="defs"></defs><path transform="translate(-11.98878539330526,-10.148399691022007)" d="M72.7,79.9c-0.6,0.1 -0.7,0.7 -1.1,1c0.5,0.4 1.2,-0.4 1.1,-1M53.3,85.2c-0.5,0.1 -0.7,0.7 -0.5,1.1l0.3,1.2c0.6,-0.8 0,-1.5 0.2,-2.3M58.2,84.5c-0.2,0.8 -1.2,1 -0.8,1.9c0.6,-0.2 0.6,-1.4 1.5,-0.9c-0.1,-0.4 0,-0.9 0.3,-1.1zM53.3,85.2c0.4,-0.2 0.9,-0.4 1,-0.9c0.4,-1 1.7,-0.5 2.4,-0.4c0.5,0 1.6,-1.4 3.1,-0.8c0.4,0.1 1.6,-0.2 0.9,1.2c0.9,-0.7 0.6,-1.8 1.3,-2.2c-0.1,-1.6 1.7,-1.3 2.4,-2.1v1.3c1,-0.4 0.6,-0.8 0,-1.5c0.8,0.1 1.9,0.2 1.9,0.5c0,0.7 -0.5,1.2 -0.9,1.6c-0.4,0.4 0,1 0.6,1.3c0.3,0.1 0.7,-0.2 1.1,-0.5c0.4,0.5 -0.3,1.2 -0.1,1.8c0.5,-0.5 1.4,-0.1 2,-0.3c0.5,-0.2 0.9,-0.7 1.3,-1.1c-0.8,-0.1 -0.8,-0.9 -1,-1.4c-0.2,-0.4 0.4,-1.4 1.2,-0.8c0.4,-0.9 0,-2.4 0.9,-3.2c-0.5,0 -0.4,-0.4 -0.3,-0.5c0.5,-1.9 0.9,-3.1 0.9,-5.2c1.1,1.4 0.3,2.8 1,3.9c-0.3,0.3 0.2,0.9 0.5,0.3c0.6,-1.3 -0.3,-4.2 0.2,-6.6c0.3,1.6 0.5,2.8 0.4,4h1.1c0.3,-2 0.4,-4.4 0.2,-6c1.2,-3.5 2.6,-6.6 2.6,-10.3c-0.1,-14.9 -8.4,-23 -20,-26.7c-3.1,-1 -6.8,-0.9 -11,-0.8c-1,0.5 -2.4,1.7 -4.1,1.8c-4.5,0.1 -7,2.8 -9.7,4.9c-7.2,5.7 -13.2,17.1 -10.1,29.8c0.7,2.7 2.2,5.2 5.3,5.9c0.7,2.6 2.9,4 5.5,5.2c0.3,0.2 -1.4,1.1 -1.1,1.7c0.7,1.2 1.2,1.4 2.5,1.5c0,0.6 -0.9,1 -0.3,1.6c0.9,0.8 1.6,-0.4 2.4,-0.3c0.9,0 1.7,0.5 2.3,1c0.4,0.3 1.4,0.6 0.8,1c-1.1,0.8 -2.7,0.3 -3.4,-0.1l0.2,1.1c2.1,1.3 4.7,2.6 8.2,2.7c0.5,0 1.1,-0.2 1.3,-0.8c0.3,-0.7 -0.4,-1.1 -0.9,-1.4l-0.2,0.9c-0.2,0.5 -0.8,0.6 -1.3,0.9c0.2,-0.6 -0.3,-1.8 -0.7,-2c-0.5,-0.3 -1.2,0.1 -1.4,-0.4c1.4,0.1 2.8,-0.7 4.2,-0.4l6.6,-0.1zM25,80.5c-0.3,-0.3 -0.5,-1 -0.1,-1.3c-0.3,-0.3 -0.9,-0.7 -0.9,0.2c-1.1,-0.6 -0.7,0.7 -0.6,1.5c-5.7,-4.6 -9.9,-10.3 -10.8,-19.5c-0.3,-2.9 -0.9,-6.3 -0.4,-9.3c0.1,-0.5 0.5,-1 0.4,-1.6c-0.1,-1 -0.9,-2.1 -0.5,-2.8c1.6,-2.4 1.9,-6.3 3.6,-8.7c2.6,-3.5 5.5,-6.9 8.7,-10.1v-1.8c2.1,-3.8 4,-7.2 7.4,-8.8c-0.1,-0.8 -0.1,-1.7 -0.8,-2.2c-1.5,-1.2 -2.7,-3.4 -2,-5.8c0.1,-0.4 1.4,0 1.5,1.1c1.6,0.8 3.1,2.9 2.3,4.7c-0.4,1 0.7,1.8 1.4,2.4c0.9,-0.4 2.4,-0.7 3.2,0.4c0.4,0.6 1.1,0.5 1.9,0.2c1,-0.4 0.3,-2.1 1.4,-3c0.8,-0.7 1.7,0.4 2.2,0.4c2.6,0.1 4.2,1.5 6.2,1.9c1.7,0.3 3.2,-0.3 4.2,-0.9c1.4,2.8 4.3,3.5 7.1,4.6c11,4.3 20.6,10 24.9,21c3.2,8.1 1.7,20.9 -2,27.5c0.6,1.3 -0.1,2.8 -1.1,3.5c-0.6,0.4 -1.5,0.1 -1.8,1c-0.1,0.6 0.3,1.8 -0.9,2.2c-3.3,1.2 -4.7,4.7 -7.4,6.6c-0.5,0.1 -1.6,0.3 -1.4,1.3c0.1,0.5 -0.5,-0.2 -0.5,-0.5c-0.6,0.6 -1.1,1.2 -1.8,1.6c0.4,0.3 1.6,0.5 2.2,-0.1c0.6,0.4 -0.3,0.9 -0.4,1c-1.7,1.9 -5.3,2.3 -7.9,1.5c-0.4,1.2 -1.9,0.6 -2.2,2.1c-1.6,-0.5 -3.4,-0.7 -4.8,0.1l-0.4,-1.1c0.3,-0.8 1.4,-0.4 1.7,-1c-5.5,0.2 -10.2,-0.9 -15.4,-1.4c-1.4,-1 -3.9,-1.2 -5.3,-1.4c1.2,0.5 1.5,1.7 2.6,2.1c0.6,0.2 1.3,0.3 2.1,0.8c-2.6,-0.6 -5.3,-0.4 -6.8,-1.4c-0.8,-0.6 -1.1,-1.5 -0.8,-2.2l0.2,-1.2c0.8,-0.2 1.4,0.6 2.1,-0.1c-1.5,-1.4 -3.1,-2.7 -4.1,-4.5c-0.3,0.1 -0.8,0.1 -1.3,0.1l-0.3,-0.1h-0.3c-0.7,-0.2 -0.9,0.9 -1.2,0.8c-1.1,-0.4 -2.8,-0.2 -3.2,1z" fill="#3385D9" class="fill c1"></path></svg>